<svg width="32" height="32" viewBox="0 0 32 32" xmlns="http://www.w3.org/2000/svg">
  <!-- Background -->
  <rect width="32" height="32" fill="#3b82f6" rx="4"/>
  
  <!-- Main octagon outline -->
  <path d="M 16 4 L 22.63 7.37 L 26 14 L 26 18 L 22.63 24.63 L 16 28 L 9.37 24.63 L 6 18 L 6 14 L 9.37 7.37 Z" 
        fill="none" 
        stroke="white" 
        stroke-width="1.5"/>
  
  <!-- Inner octagon -->
  <path d="M 16 8 L 20.31 9.69 L 22 14 L 22 18 L 20.31 22.31 L 16 24 L 11.69 22.31 L 10 18 L 10 14 L 11.69 9.69 Z" 
        fill="none" 
        stroke="white" 
        stroke-width="0.8" 
        opacity="0.6"/>
  
  <!-- Skill polygon -->
  <path d="M 16 8 L 20.31 10.5 L 21.5 16 L 20.31 19.5 L 17.5 22 L 16 23 L 13 21 L 11.5 16 Z" 
        fill="rgba(255, 255, 255, 0.4)" 
        stroke="white" 
        stroke-width="1"/>
  
  <!-- Center point -->
  <circle cx="16" cy="16" r="1" fill="white"/>
</svg>